<svg version="1.1" id="Layer_1" xmlns="http://www.w3.org/2000/svg" xmlns:xlink="http://www.w3.org/1999/xlink" x="300px" y="500px"
	 width="50.000000pt" height="50.000000pt" viewBox="25 25 600 600" enable-background="new 0 0 554 585" xml:space="preserve">
<path fill="#000000" opacity="1.000000" stroke="none" 
	d="
M555.000000,224.000000 
	C555.000000,344.594604 555.000000,465.189209 555.000000,586.000000 
	C434.644104,586.000000 314.288086,586.000000 193.231155,585.627075 
	C193.364563,580.332031 193.860840,575.322327 195.107574,570.506897 
	C197.313522,561.986694 199.921860,553.568176 202.487534,545.145386 
	C203.084610,543.185181 204.248230,541.404480 205.044220,539.496582 
	C207.035934,534.722656 208.966293,529.923096 211.125366,525.447144 
	C227.523041,531.833191 243.779205,537.747375 259.864136,544.095398 
	C263.672546,545.598389 265.112091,544.632629 266.378998,541.267456 
	C271.550781,527.529968 276.810974,513.825562 282.073151,500.122223 
	C289.249146,481.435028 296.456635,462.759918 303.681427,443.999695 
	C310.535614,443.999695 317.190979,443.999725 323.846344,443.999725 
	C354.659027,443.999725 385.472168,444.075073 416.283905,443.903717 
	C420.111938,443.882416 421.791626,445.108276 422.925842,448.667694 
	C425.796509,457.676514 429.034790,466.569275 432.182526,475.488495 
	C440.112183,497.957489 448.097717,520.406799 455.991577,542.888306 
	C457.025238,545.832153 458.280060,546.540833 461.458374,545.364929 
	C476.307556,539.870972 491.271912,534.688354 506.197693,529.401672 
	C515.095520,526.250061 523.998169,523.111877 532.857849,519.981995 
	C532.237915,518.201355 531.817627,516.981750 531.389038,515.764954 
	C521.421448,487.469818 511.458801,459.172974 501.483185,430.880646 
	C487.503174,391.231354 473.472076,351.600006 459.567383,311.924347 
	C457.164764,305.068817 455.280365,298.031677 453.511444,291.047180 
	C460.585297,286.547089 467.234985,281.969177 474.043488,277.641083 
	C480.417633,273.589050 487.011475,269.883026 493.396210,265.846924 
	C495.245239,264.678040 496.503235,262.531738 498.391571,261.477020 
	C501.630585,259.667847 505.464661,258.821350 508.488770,256.752136 
	C514.255737,252.806183 519.597900,248.243622 525.178223,244.018768 
	C527.819824,242.018875 530.541748,240.109390 533.338013,238.333176 
	C537.689331,235.569153 542.059509,233.001556 545.743713,229.168411 
	C548.086060,226.731415 551.865173,225.675308 555.000000,224.000000 
z"/>
<path fill="#2BBCBC" opacity="1.000000" stroke="none" 
	d="
M555.000000,223.531342 
	C551.865173,225.675308 548.086060,226.731415 545.743713,229.168411 
	C542.059509,233.001556 537.689331,235.569153 533.338013,238.333176 
	C530.541748,240.109390 527.819824,242.018875 525.178223,244.018768 
	C519.597900,248.243622 514.255737,252.806183 508.488770,256.752136 
	C505.464661,258.821350 501.630585,259.667847 498.391571,261.477020 
	C496.503235,262.531738 495.245239,264.678040 493.396210,265.846924 
	C487.011475,269.883026 480.417633,273.589050 474.043488,277.641083 
	C467.234985,281.969177 460.585297,286.547089 453.151611,290.967651 
	C451.749878,289.849030 450.826355,288.862946 450.410583,287.695953 
	C441.207886,261.866760 432.065186,236.016190 422.902710,210.172668 
	C417.404999,194.665985 411.989227,179.128525 406.244537,163.713730 
	C405.644318,162.103058 403.070770,160.190582 401.395416,160.174042 
	C377.922791,159.942352 354.446991,160.050568 330.972351,159.970169 
	C328.173523,159.960587 326.834839,161.028122 325.912964,163.630264 
	C323.417328,170.674820 320.652863,177.624435 317.976501,184.604599 
	C312.981110,197.632935 307.959900,210.651382 302.985596,223.687744 
	C302.358521,225.331161 301.945190,227.047638 299.763794,224.620819 
	C292.540558,204.311096 285.354736,184.366302 278.342834,164.360550 
	C273.528198,150.623856 268.955170,136.802475 264.621826,122.985016 
	C269.875458,113.192146 275.015259,103.541954 279.618530,93.642250 
	C283.829010,84.587288 287.483704,75.272743 291.335999,66.052803 
	C293.565277,60.717297 296.193298,55.480881 297.746429,49.948490 
	C299.454742,43.863247 299.957031,37.449951 301.331299,31.256462 
	C302.147278,27.578941 304.957153,23.885763 304.536926,20.488245 
	C303.685760,13.606151 305.410675,7.387901 307.000000,1.000000 
	C331.354218,1.000000 355.708466,1.000000 380.230347,1.286037 
	C393.592438,10.371164 406.729034,19.258492 419.997253,27.944784 
	C433.541412,36.811722 447.286621,45.371990 460.812561,54.266113 
	C476.104736,64.321579 491.183136,74.702278 506.480286,84.749962 
	C520.429260,93.912071 534.529602,102.844528 548.608826,111.806595 
	C550.607117,113.078606 552.863220,113.945572 555.000000,115.000000 
	C555.000000,151.020889 555.000000,187.041794 555.000000,223.531342 
z"/>
<path fill="#000000" opacity="1.000000" stroke="none" 
	d="
M306.531342,1.000000 
	C305.410675,7.387901 303.685760,13.606151 304.536926,20.488245 
	C304.957153,23.885763 302.147278,27.578941 301.331299,31.256462 
	C299.957031,37.449951 299.454742,43.863247 297.746429,49.948490 
	C296.193298,55.480881 293.565277,60.717297 291.335999,66.052803 
	C287.483704,75.272743 283.829010,84.587288 279.618530,93.642250 
	C275.015259,103.541954 269.875458,113.192146 264.509155,122.595383 
	C255.213699,97.180389 246.361084,72.127258 237.568695,47.052998 
	C236.610001,44.318943 234.758591,43.943649 232.179810,43.952316 
	C208.188797,44.032959 184.197159,44.053539 160.206451,43.935406 
	C157.040924,43.919819 155.912048,44.941002 154.797668,47.994423 
	C148.393677,65.541374 141.599350,82.946136 134.910645,100.388855 
	C127.235687,120.403465 119.541039,140.410522 111.839882,160.415054 
	C103.612358,181.786850 95.361519,203.149673 87.131317,224.520447 
	C77.557938,249.378922 67.954002,274.225739 58.450218,299.110809 
	C54.804836,308.656006 51.399265,318.292847 47.562790,328.037567 
	C45.695889,329.067291 43.661823,329.583679 42.689651,330.890198 
	C38.397198,336.658875 31.538931,338.766998 26.133131,342.924835 
	C20.056400,347.598816 13.670802,351.881927 7.297626,356.153076 
	C5.410168,357.418030 3.110677,358.068146 0.999996,359.000000 
	C1.000000,239.745300 1.000000,120.490608 1.000000,1.000000 
	C102.687439,1.000000 204.375061,1.000000 306.531342,1.000000 
M207.500000,12.000000 
	C220.383377,12.000000 233.266754,12.000000 246.150116,12.000000 
	C246.145493,11.762187 246.140869,11.524373 246.136246,11.286560 
	C211.975296,11.286560 177.814346,11.286560 143.653397,11.286560 
	C143.652969,11.524373 143.652542,11.762187 143.652100,12.000000 
	C164.601395,12.000000 185.550705,12.000000 207.500000,12.000000 
z"/>
<path fill="#2BBCBC" opacity="1.000000" stroke="none" 
	d="
M0.999996,359.468628 
	C3.110677,358.068146 5.410168,357.418030 7.297626,356.153076 
	C13.670802,351.881927 20.056400,347.598816 26.133131,342.924835 
	C31.538931,338.766998 38.397198,336.658875 42.689651,330.890198 
	C43.661823,329.583679 45.695889,329.067291 47.561295,328.418030 
	C38.970375,352.201355 30.059319,375.753937 21.040188,399.592133 
	C44.723560,408.710968 67.965645,417.651398 91.198776,426.615051 
	C94.418045,427.857086 95.171967,425.754700 96.074066,423.395050 
	C107.822090,392.665924 119.685501,361.980591 131.314789,331.206757 
	C132.624268,327.741608 134.415283,326.772827 137.892212,326.806915 
	C153.545670,326.960327 169.201477,326.873627 184.856445,326.873657 
	C205.840759,326.873688 226.825333,326.830200 247.808914,326.955963 
	C249.504974,326.966156 252.250870,327.715607 252.702469,328.844330 
	C254.602600,333.593384 255.816483,338.617035 257.111298,343.894104 
	C256.222443,345.926392 255.448776,347.583588 254.793518,349.286316 
	C245.838852,372.554718 236.910706,395.833374 227.955780,419.101654 
	C216.016129,450.125397 204.093369,481.155731 192.061005,512.143494 
	C190.704483,515.637024 191.593643,517.045288 195.069870,518.278076 
	C200.483276,520.197754 205.649994,522.813232 210.921265,525.133850 
	C208.966293,529.923096 207.035934,534.722656 205.044220,539.496582 
	C204.248230,541.404480 203.084610,543.185181 202.487534,545.145386 
	C199.921860,553.568176 197.313522,561.986694 195.107574,570.506897 
	C193.860840,575.322327 193.364563,580.332031 192.765121,585.627075 
	C178.312439,586.000000 163.624878,586.000000 148.763245,585.713806 
	C133.395172,575.481689 118.191109,565.551147 103.009262,555.586792 
	C72.021736,535.248535 41.051270,514.884277 10.057463,494.555664 
	C7.097168,492.614044 4.021888,490.847717 1.000000,489.000000 
	C1.000000,445.979095 1.000000,402.958221 0.999996,359.468628 
z"/>
<path fill="#000000" opacity="1.000000" stroke="none" 
	d="
M555.000000,114.531342 
	C552.863220,113.945572 550.607117,113.078606 548.608826,111.806595 
	C534.529602,102.844528 520.429260,93.912071 506.480286,84.749962 
	C491.183136,74.702278 476.104736,64.321579 460.812561,54.266113 
	C447.286621,45.371990 433.541412,36.811722 419.997253,27.944784 
	C406.729034,19.258492 393.592438,10.371164 380.699036,1.286037 
	C438.911774,1.000000 496.823578,1.000000 555.000000,1.000000 
	C555.000000,38.687149 555.000000,76.374916 555.000000,114.531342 
z"/>
<path fill="#000000" opacity="1.000000" stroke="none" 
	d="
M1.000000,489.468658 
	C4.021888,490.847717 7.097168,492.614044 10.057463,494.555664 
	C41.051270,514.884277 72.021736,535.248535 103.009262,555.586792 
	C118.191109,565.551147 133.395172,575.481689 148.294586,585.713806 
	C99.088005,586.000000 50.176010,586.000000 1.000000,586.000000 
	C1.000000,553.979614 1.000000,521.958435 1.000000,489.468658 
z"/>
<path fill="#2BA2AB" opacity="1.000000" stroke="none" 
	d="
M211.125381,525.447144 
	C205.649994,522.813232 200.483276,520.197754 195.069870,518.278076 
	C191.593643,517.045288 190.704483,515.637024 192.061005,512.143494 
	C204.093369,481.155731 216.016129,450.125397 227.955780,419.101654 
	C236.910706,395.833374 245.838852,372.554718 254.793518,349.286316 
	C255.448776,347.583588 256.222443,345.926392 257.539215,344.018463 
	C286.060974,343.814667 313.984589,343.840454 342.071777,344.204376 
	C343.818115,348.986877 345.400879,353.431244 346.518250,357.915833 
	C319.268646,357.956085 292.484406,357.956085 265.006500,357.956085 
	C266.541260,362.421021 268.083099,366.091156 269.037415,369.908173 
	C270.025208,373.859314 272.124390,374.988281 276.144226,374.956451 
	C300.306152,374.765198 324.470367,374.866699 348.633820,374.849426 
	C350.214722,374.848297 351.795532,374.675049 353.845398,374.554199 
	C352.834686,371.308929 352.003693,368.640778 351.625610,365.979095 
	C363.654236,365.989288 375.230194,366.029510 386.805481,365.957458 
	C388.552979,365.946564 390.297272,365.412170 392.201050,365.047455 
	C392.359100,364.974976 392.706390,364.993317 392.988251,364.908936 
	C393.153870,364.231232 393.037628,363.637939 392.598450,362.858887 
	C391.983673,361.749542 391.709503,360.819946 391.397156,359.903351 
	C388.583038,351.645386 385.762238,343.389679 382.955658,334.735291 
	C377.647980,317.635101 372.023438,301.049988 364.600311,284.986908 
	C361.654297,290.349915 359.646790,295.563995 357.586609,300.757141 
	C352.388885,313.859131 347.167389,326.951721 341.706299,339.789032 
	C340.467651,336.707489 339.208191,333.945892 338.554413,331.047668 
	C337.659424,327.079987 335.570343,325.925476 331.515503,325.968842 
	C311.036194,326.187988 290.553223,326.069550 270.071564,326.069550 
	C268.319427,326.069550 266.567291,326.069550 264.230255,326.069550 
	C265.247162,322.952637 266.240417,320.655090 266.725464,318.254852 
	C267.554382,314.153137 269.653320,312.823883 273.956268,312.887024 
	C292.269287,313.155701 310.588470,313.001312 328.905426,313.001343 
	C330.659332,313.001343 332.413208,313.001312 334.909271,313.001312 
	C333.161591,308.347748 331.598785,304.525421 330.300262,300.615356 
	C329.361664,297.789032 327.670715,296.906860 324.723999,296.935547 
	C310.404816,297.075104 296.083588,296.998688 281.763062,296.998749 
	C279.646606,296.998749 277.530151,296.998779 275.417694,296.998779 
	C275.437408,287.613586 277.822937,285.071716 286.000092,285.071503 
	C288.830902,285.071411 291.661682,285.071442 294.492493,285.071442 
	C303.776123,285.071442 313.059753,285.071472 323.093781,285.071472 
	C321.526794,280.986603 319.881256,277.706635 319.035004,274.232025 
	C318.007782,270.014343 315.740692,268.832123 311.562775,268.975830 
	C302.657379,269.282104 293.734100,269.069427 284.718048,269.069427 
	C286.661499,258.071533 286.661499,258.071533 296.530701,258.071472 
	C302.489441,258.071442 308.448212,258.071472 315.326172,258.071472 
	C313.329590,252.849457 311.821625,248.314728 309.795288,244.024872 
	C309.294861,242.965424 307.140198,242.258667 305.692932,242.158798 
	C301.954376,241.900803 298.186188,242.072342 293.386597,242.072342 
	C295.801086,235.704758 297.838226,230.332260 299.875397,224.959763 
	C301.945190,227.047638 302.358521,225.331161 302.985596,223.687744 
	C307.959900,210.651382 312.981110,197.632935 317.976501,184.604599 
	C320.652863,177.624435 323.417328,170.674820 325.912964,163.630264 
	C326.834839,161.028122 328.173523,159.960587 330.972351,159.970169 
	C354.446991,160.050568 377.922791,159.942352 401.395416,160.174042 
	C403.070770,160.190582 405.644318,162.103058 406.244537,163.713730 
	C411.989227,179.128525 417.404999,194.665985 422.902710,210.172668 
	C432.065186,236.016190 441.207886,261.866760 450.410583,287.695953 
	C450.826355,288.862946 451.749878,289.849030 452.796753,290.998901 
	C455.280365,298.031677 457.164764,305.068817 459.567383,311.924347 
	C473.472076,351.600006 487.503174,391.231354 501.483185,430.880646 
	C511.458801,459.172974 521.421448,487.469818 531.389038,515.764954 
	C531.817627,516.981750 532.237915,518.201355 532.857849,519.981995 
	C523.998169,523.111877 515.095520,526.250061 506.197693,529.401672 
	C491.271912,534.688354 476.307556,539.870972 461.458374,545.364929 
	C458.280060,546.540833 457.025238,545.832153 455.991577,542.888306 
	C448.097717,520.406799 440.112183,497.957489 432.182526,475.488495 
	C429.034790,466.569275 425.796509,457.676514 422.925842,448.667694 
	C421.791626,445.108276 420.111938,443.882416 416.283905,443.903717 
	C385.472168,444.075073 354.659027,443.999725 323.846344,443.999725 
	C317.190979,443.999725 310.535614,443.999695 303.681427,443.999695 
	C296.456635,462.759918 289.249146,481.435028 282.073151,500.122223 
	C276.810974,513.825562 271.550781,527.529968 266.378998,541.267456 
	C265.112091,544.632629 263.672546,545.598389 259.864136,544.095398 
	C243.779205,537.747375 227.523041,531.833191 211.125381,525.447144 
M344.485535,386.139008 
	C321.459045,386.139008 298.432556,386.139008 274.360718,386.139008 
	C276.028137,390.924469 277.597809,394.547821 278.522095,398.328949 
	C279.452881,402.136658 281.485718,403.116425 285.251373,403.090942 
	C309.363800,402.927704 333.477844,403.014832 357.591370,402.992645 
	C359.303101,402.991089 361.014648,402.774292 363.091370,402.632660 
	C362.560181,400.681061 362.271271,399.409241 361.869049,398.174286 
	C357.948120,386.135986 357.942719,386.137756 344.485535,386.139008 
M364.265137,414.995087 
	C338.382599,414.995087 312.500061,414.995087 285.876831,414.995087 
	C287.428162,419.351654 288.957916,422.846771 289.890350,426.494568 
	C290.797150,430.041962 292.642059,431.042969 296.238403,431.019012 
	C320.357697,430.858246 344.478577,430.943176 368.598907,430.919159 
	C370.323792,430.917450 372.048431,430.683777 374.518951,430.503540 
	C373.126343,426.163300 371.836212,422.613159 370.867126,418.977448 
	C370.050110,415.912292 368.412933,414.430603 364.265137,414.995087 
z"/>
<path fill="#036BFC" opacity="1.000000" stroke="none" 
	d="
M341.908203,343.866241 
	C313.984589,343.840454 286.060974,343.814667 257.709442,343.664551 
	C255.816483,338.617035 254.602600,333.593384 252.702469,328.844330 
	C252.250870,327.715607 249.504974,326.966156 247.808914,326.955963 
	C226.825333,326.830200 205.840759,326.873688 184.856445,326.873657 
	C169.201477,326.873627 153.545670,326.960327 137.892212,326.806915 
	C134.415283,326.772827 132.624268,327.741608 131.314789,331.206757 
	C119.685501,361.980591 107.822090,392.665924 96.074066,423.395050 
	C95.171967,425.754700 94.418045,427.857086 91.198776,426.615051 
	C67.965645,417.651398 44.723560,408.710968 21.040188,399.592133 
	C30.059319,375.753937 38.970375,352.201355 47.882927,328.268372 
	C51.399265,318.292847 54.804836,308.656006 58.450218,299.110809 
	C67.954002,274.225739 77.557938,249.378922 87.131317,224.520447 
	C95.361519,203.149673 103.612358,181.786850 111.839882,160.415054 
	C119.541039,140.410522 127.235687,120.403465 134.910645,100.388855 
	C141.599350,82.946136 148.393677,65.541374 154.797668,47.994423 
	C155.912048,44.941002 157.040924,43.919819 160.206451,43.935406 
	C184.197159,44.053539 208.188797,44.032959 232.179810,43.952316 
	C234.758591,43.943649 236.610001,44.318943 237.568695,47.052998 
	C246.361084,72.127258 255.213699,97.180389 264.161438,122.629311 
	C268.955170,136.802475 273.528198,150.623856 278.342834,164.360550 
	C285.354736,184.366302 292.540558,204.311096 299.763794,224.620819 
	C297.838226,230.332260 295.801086,235.704758 293.386597,242.072342 
	C298.186188,242.072342 301.954376,241.900803 305.692932,242.158798 
	C307.140198,242.258667 309.294861,242.965424 309.795288,244.024872 
	C311.821625,248.314728 313.329590,252.849457 315.326172,258.071472 
	C308.448212,258.071472 302.489441,258.071442 296.530701,258.071472 
	C286.661499,258.071533 286.661499,258.071533 284.718048,269.069427 
	C293.734100,269.069427 302.657379,269.282104 311.562775,268.975830 
	C315.740692,268.832123 318.007782,270.014343 319.035004,274.232025 
	C319.881256,277.706635 321.526794,280.986603 323.093781,285.071472 
	C313.059753,285.071472 303.776123,285.071442 294.492493,285.071442 
	C291.661682,285.071442 288.830902,285.071411 286.000092,285.071503 
	C277.822937,285.071716 275.437408,287.613586 275.417694,296.998779 
	C277.530151,296.998779 279.646606,296.998749 281.763062,296.998749 
	C296.083588,296.998688 310.404816,297.075104 324.723999,296.935547 
	C327.670715,296.906860 329.361664,297.789032 330.300262,300.615356 
	C331.598785,304.525421 333.161591,308.347748 334.909271,313.001312 
	C332.413208,313.001312 330.659332,313.001343 328.905426,313.001343 
	C310.588470,313.001312 292.269287,313.155701 273.956268,312.887024 
	C269.653320,312.823883 267.554382,314.153137 266.725464,318.254852 
	C266.240417,320.655090 265.247162,322.952637 264.230255,326.069550 
	C266.567291,326.069550 268.319427,326.069550 270.071564,326.069550 
	C290.553223,326.069550 311.036194,326.187988 331.515503,325.968842 
	C335.570343,325.925476 337.659424,327.079987 338.554413,331.047668 
	C339.208191,333.945892 340.467651,336.707489 341.708099,340.171082 
	C341.942108,341.830231 341.925140,342.848236 341.908203,343.866241 
M167.371597,240.088455 
	C166.084152,242.684250 164.796722,245.280060 163.187347,248.524963 
	C184.291489,248.524963 203.934631,248.524963 223.881927,248.524963 
	C223.746277,247.134964 223.837784,246.123947 223.533920,245.250504 
	C218.742966,231.479172 213.918930,217.719193 209.025101,203.984161 
	C208.742508,203.191040 207.797363,202.633987 207.004654,201.210602 
	C203.195679,190.331497 199.386688,179.452377 195.480499,168.295670 
	C194.619003,169.891724 193.781967,171.116959 193.257614,172.463913 
	C187.550003,187.125946 181.810226,201.776382 176.252594,216.495438 
	C173.341614,224.204971 170.773666,232.044037 167.371597,240.088455 
z"/>
<path fill="#CFE1F2" opacity="1.000000" stroke="none" 
	d="
M207.000000,12.000000 
	C185.550705,12.000000 164.601395,12.000000 143.652100,12.000000 
	C143.652542,11.762187 143.652969,11.524373 143.653397,11.286560 
	C177.814346,11.286560 211.975296,11.286560 246.136246,11.286560 
	C246.140869,11.524373 246.145493,11.762187 246.150116,12.000000 
	C233.266754,12.000000 220.383377,12.000000 207.000000,12.000000 
z"/>
<path fill="#2EBCBD" opacity="1.000000" stroke="none" 
	d="
M342.071777,344.204376 
	C341.925140,342.848236 341.942108,341.830231 341.957245,340.430176 
	C347.167389,326.951721 352.388885,313.859131 357.586609,300.757141 
	C359.646790,295.563995 361.654297,290.349915 364.600311,284.986908 
	C372.023438,301.049988 377.647980,317.635101 382.628784,334.811829 
	C377.115509,338.750153 371.834534,342.066467 366.794708,345.715790 
	C360.766327,350.081024 354.944031,354.730835 348.763977,359.103271 
	C347.991486,358.591278 347.487579,358.233429 346.983643,357.875610 
	C345.400879,353.431244 343.818115,348.986877 342.071777,344.204376 
z"/>
<path fill="#046DF9" opacity="1.000000" stroke="none" 
	d="
M346.518250,357.915833 
	C347.487579,358.233429 347.991486,358.591278 348.767395,359.446289 
	C349.728333,361.614624 350.417328,363.285797 351.086182,365.213257 
	C351.101593,365.637238 351.137177,365.804901 351.172729,365.972595 
	C352.003693,368.640778 352.834686,371.308929 353.845398,374.554199 
	C351.795532,374.675049 350.214722,374.848297 348.633820,374.849426 
	C324.470367,374.866699 300.306152,374.765198 276.144226,374.956451 
	C272.124390,374.988281 270.025208,373.859314 269.037415,369.908173 
	C268.083099,366.091156 266.541260,362.421021 265.006500,357.956085 
	C292.484406,357.956085 319.268646,357.956085 346.518250,357.915833 
z"/>
<path fill="#046DF9" opacity="1.000000" stroke="none" 
	d="
M344.982056,386.139160 
	C357.942719,386.137756 357.948120,386.135986 361.869049,398.174286 
	C362.271271,399.409241 362.560181,400.681061 363.091370,402.632660 
	C361.014648,402.774292 359.303101,402.991089 357.591370,402.992645 
	C333.477844,403.014832 309.363800,402.927704 285.251373,403.090942 
	C281.485718,403.116425 279.452881,402.136658 278.522095,398.328949 
	C277.597809,394.547821 276.028137,390.924469 274.360718,386.139008 
	C298.432556,386.139008 321.459045,386.139008 344.982056,386.139160 
z"/>
<path fill="#046CFA" opacity="1.000000" stroke="none" 
	d="
M364.728149,414.995178 
	C368.412933,414.430603 370.050110,415.912292 370.867126,418.977448 
	C371.836212,422.613159 373.126343,426.163300 374.518951,430.503540 
	C372.048431,430.683777 370.323792,430.917450 368.598907,430.919159 
	C344.478577,430.943176 320.357697,430.858246 296.238403,431.019012 
	C292.642059,431.042969 290.797150,430.041962 289.890350,426.494568 
	C288.957916,422.846771 287.428162,419.351654 285.876831,414.995087 
	C312.500061,414.995087 338.382599,414.995087 364.728149,414.995178 
z"/>
<path fill="#000000" opacity="1.000000" stroke="none" 
	d="
M351.106323,364.956970 
	C350.417328,363.285797 349.728333,361.614624 349.035919,359.600464 
	C354.944031,354.730835 360.766327,350.081024 366.794708,345.715790 
	C371.834534,342.066467 377.115509,338.750153 382.616516,335.209839 
	C385.762238,343.389679 388.583038,351.645386 391.397156,359.903351 
	C391.709503,360.819946 391.983673,361.749542 392.618439,363.187927 
	C392.876343,364.132904 392.791382,364.563110 392.706421,364.993317 
	C392.706390,364.993317 392.359100,364.974976 391.727783,364.997620 
	C377.766449,364.999176 364.436371,364.978088 351.106323,364.956970 
z"/>
<path fill="#5EB6C1" opacity="1.000000" stroke="none" 
	d="
M351.086182,365.213257 
	C364.436371,364.978088 377.766449,364.999176 391.569763,365.070099 
	C390.297272,365.412170 388.552979,365.946564 386.805481,365.957458 
	C375.230194,366.029510 363.654236,365.989288 351.625610,365.979095 
	C351.137177,365.804901 351.101593,365.637238 351.086182,365.213257 
z"/>
<path fill="#5EB6C1" opacity="1.000000" stroke="none" 
	d="
M392.988281,364.908936 
	C392.791382,364.563110 392.876343,364.132904 392.941345,363.373657 
	C393.037628,363.637939 393.153870,364.231232 392.988281,364.908936 
z"/>
<path fill="#2EBBBE" opacity="1.000000" stroke="none" 
	d="
M207.160553,201.967072 
	C207.797363,202.633987 208.742508,203.191040 209.025101,203.984161 
	C213.918930,217.719193 218.742966,231.479172 223.533920,245.250504 
	C223.837784,246.123947 223.746277,247.134964 223.881927,248.524963 
	C203.934631,248.524963 184.291489,248.524963 163.187347,248.524963 
	C164.796722,245.280060 166.084152,242.684250 168.054260,239.898117 
	C172.346069,236.765472 176.187729,234.061569 179.508286,230.823303 
	C184.138901,226.307419 188.329453,221.343842 192.801544,216.660873 
	C197.530914,211.708527 202.369614,206.860596 207.160553,201.967072 
z"/>
<path fill="#000000" opacity="1.000000" stroke="none" 
	d="
M207.082611,201.588837 
	C202.369614,206.860596 197.530914,211.708527 192.801544,216.660873 
	C188.329453,221.343842 184.138901,226.307419 179.508286,230.823303 
	C176.187729,234.061569 172.346069,236.765472 168.393860,239.766190 
	C170.773666,232.044037 173.341614,224.204971 176.252594,216.495438 
	C181.810226,201.776382 187.550003,187.125946 193.257614,172.463913 
	C193.781967,171.116959 194.619003,169.891724 195.480499,168.295670 
	C199.386688,179.452377 203.195679,190.331497 207.082611,201.588837 
z"/>
</svg>