 <svg  version="1.0" xmlns="http://www.w3.org/2000/svg"  width="47.000000pt" height="47.000000pt" viewBox="0 0 400.000000 400.000000"  preserveAspectRatio="xMidYMid meet">  <g transform="translate(0.000000,980.000000) scale(0.050000,-0.050000)" fill="#771818" stroke="none"> <path d="M3889 19383 c-287 -119 -1022 -425 -1635 -682 l-1114 -468 0 -1063 0 -1063 -99 -46 c-474 -223 -305 -928 210 -875 489 50 569 678 112 883 l-87 39 7 994 c4 547 13 1001 21 1008 7 8 538 -204 1180 -471 641 -267 1343 -556 1560 -643 l394 -158 296 114 c784 301 3103 1238 3130 1264 14 14 -904 387 -2599 1058 -454 179 -832 325 -840 325 -8 -1 -249 -98 -536 -216z"/> <path d="M5402 16810 l-968 -387 -92 36 c-51 20 -463 191 -917 379 -453 188 -838 342 -854 342 -118 0 -317 -680 -319 -1090 -12 -2394 3207 -3169 4279 -1030 314 627 305 1495 -20 2050 -72 122 -14 138 -1109 -300z"/> <path d="M5911 14214 c-47 -71 -186 -395 -671 -1554 -461 -1100 -717 -1704 -729 -1716 -8 -7 -205 456 -858 2019 -575 1378 -517 1254 -587 1242 -1112 -187 -2018 -686 -2293 -1262 l-83 -173 -6 -1180 c-8 -1406 -9 -1396 237 -1520 l98 -50 3491 0 3491 0 98 49 c53 27 125 84 159 125 l63 76 -6 1312 -5 1311 -85 171 c-256 516 -915 907 -1875 1112 -428 91 -406 89 -439 38z"/> </g> </svg> 